<svg height='300px' width='300px'  fill="#A2A2A2" xmlns="http://www.w3.org/2000/svg" xmlns:xlink="http://www.w3.org/1999/xlink" version="1.1" x="0px" y="0px" viewBox="0 0 100 100" enable-background="new 0 0 100 100" xml:space="preserve"><path d="M67.058,25.458L67.058,25.458c-0.962-0.723,5.502-10.942,5.502-10.942c0.723-0.961,2.089-1.154,3.05-0.431l0,0  c0.961,0.723,1.155,2.088,0.432,3.05C76.041,17.134,68.019,26.18,67.058,25.458z"></path><path d="M60.898,20.968L60.898,20.968c-1.193-0.145-0.706-12.226-0.706-12.226c0.146-1.194,1.232-2.043,2.426-1.899l0,0  c1.195,0.146,2.044,1.231,1.898,2.426C64.517,9.269,62.093,21.113,60.898,20.968z"></path><path d="M53.538,23.534L53.538,23.534c-1.107,0.471-6.725-10.236-6.725-10.236c-0.471-1.106,0.044-2.385,1.151-2.856l0,0  c1.107-0.471,2.386,0.043,2.857,1.15C50.822,11.592,54.646,23.063,53.538,23.534z"></path><path d="M51.863,91.396c2.389-1.946,4.981-3.815,7.757-5.562c4.278-2.694,8.628-4.875,12.877-6.531  c4.09-7.503,2.167-16.488-1.985-23.222c0.959-6.834,1.804-11.92,9.634-15.086c2.904-1.174,3.575-3.746,2.099-6.239  c-1.411-2.381-6.128-2.854-9.062-1.602c-3.615,1.544-6.27,3.445-8.432,5.665v-0.002c0,0-0.008,0.009-0.023,0.026  c-0.146,0.152-0.292,0.305-0.436,0.459c-0.76,0.739-2.405,2.072-4.457,2.147c-1.801,0.066-3.374-1.265-3.938-1.807  c-8.401-9.757-18.151-18.881-25.788-24.125c-2.532-1.739-6.129-1.322-8.033,0.93c-1.905,2.253-1.396,5.49,1.137,7.229  c5.905,4.055,12.518,11.115,18.578,18.899c-0.541-0.387-1.077-0.759-1.604-1.11c-2.696-1.798-6.287-2.222-8.685-0.095  c-2.397,2.128-2.396,5.621,0.002,7.8c0.631,0.573,1.273,1.187,1.926,1.834c-1.393-0.821-3.512-0.96-5.005-0.862  c-1.436,0.096-2.833,0.643-3.907,1.638c-2.346,2.174-2.261,5.667,0.189,7.8c0.491,0.428,1.003,0.87,1.533,1.321  c-1.244-0.414-2.671-0.471-3.854-0.294c-1.413,0.21-2.744,0.865-3.711,1.939c-2.121,2.354-1.223,5.312,0.955,7.765  c1.64,1.847,3.179,3.52,4.666,5.037l-0.04,0.032C33.373,84.496,41.726,91.724,51.863,91.396z"></path></svg>